<svg xmlns="http://www.w3.org/2000/svg" viewBox="0 0 33 35" id="icn-logo">
	<title>VBB Logo</title>
	<path fill="#e10000" fill-rule="evenodd" d="M16.5.006s4.945-.275 9.63 2.938c5.025 3.447 6.456 8.044 6.456 8.044h-4.374S26.74 8.041 23.485 6.01C20.016 3.844 16.5 3.996 16.5 3.996V.006zm-3.69.401l.802 3.86s-.779.147-1.836.52c-1.057.374-1.964.91-1.964.91L7.837 2.28s1.035-.626 2.424-1.146C11.651.612 12.81.407 12.81.407zM5.257 4.07l2.58 3.072s-.729.645-1.211 1.145c-.483.5-.882 1.073-.882 1.073l-3.27-2.418s.658-.81 1.222-1.409c.565-.599 1.561-1.463 1.561-1.463zm7.501 8.546H10.09l-3.038 6.706h-.028l-.12-6.706h-2.78L5 21.976h2.85l4.909-9.36zm6.47 6.732c.271-1.26-.335-2.011-1.507-2.212l.006-.027c1.027-.228 1.997-.778 2.321-2.28.3-1.395-.529-2.213-2.596-2.213h-3.688l-2.018 9.36h3.744c1.858 0 3.339-.777 3.738-2.628zm-1.801-4.023c-.171.791-.796 1.033-1.438 1.033h-.517l.442-2.052h.67c.615 0 .993.322.843 1.02zm-.673 3.836c-.154.71-.665 1.072-1.419 1.072h-.698l.47-2.185h.81c.685 0 .987.415.837 1.113zm10.827.187c.272-1.26-.334-2.011-1.507-2.212l.006-.027c1.027-.228 1.998-.778 2.322-2.28.3-1.395-.53-2.213-2.597-2.213h-3.688l-2.017 9.36h3.744c1.858 0 3.338-.777 3.737-2.628zm-1.8-4.023c-.171.791-.796 1.033-1.439 1.033h-.517l.443-2.052h.67c.615 0 .993.322.842 1.02zm-.674 3.836c-.153.71-.664 1.072-1.418 1.072h-.699l.471-2.185h.81c.685 0 .987.415.836 1.113zm-9.02 15.833s-4.946.275-9.63-2.938C1.43 28.609 0 24.012 0 24.012h4.374s1.472 2.947 4.727 4.979c3.47 2.165 6.986 2.013 6.986 2.013v3.99zm3.69-.401l-.803-3.86s.78-.147 1.836-.52a12.651 12.651 0 0 0 1.964-.91l1.975 3.418s-1.035.626-2.424 1.146c-1.39.521-2.549.726-2.549.726zm7.552-3.663l-2.58-3.072s.729-.645 1.211-1.145c.483-.5.882-1.073.882-1.073l3.27 2.418s-.657.81-1.222 1.409c-.564.599-1.56 1.463-1.56 1.463z"></path>
</svg>